<svg xmlns="http://www.w3.org/2000/svg" height="1024" preserveAspectRatio="none" style="display: block;" version="1.1" viewBox="0 0 2048 2048" width="1024">
<path d="M 0 0 L 2048 0 L 2048 2048 L 0 2048 L 0 0 z" fill="rgb(26,14,25)" transform="translate(0,0)"></path>
<path d="M 1009.83 96.1772 C 1522.51 88.7698 1944.11 498.394 1951.48 1011.07 C 1958.85 1523.75 1549.19 1945.33 1036.51 1952.66 C 523.887 1959.99 102.367 1550.39 94.9983 1037.76 C 87.6295 525.134 497.201 103.584 1009.83 96.1772 z" fill="rgb(254,234,193)" transform="translate(0,0)"></path>
<path d="M 983.002 112.145 C 1487.02 89.9066 1913.57 480.606 1935.56 984.638 C 1957.54 1488.67 1566.63 1915.02 1062.58 1936.75 C 558.9 1958.47 132.917 1567.89 110.949 1064.22 C 88.981 560.547 479.341 134.367 983.002 112.145 z" fill="rgb(0,0,0)" transform="translate(0,0)"></path>
<path d="M 1197.59 178.483 C 1268.01 176.163 1353.88 194.85 1419.58 218.823 C 1540.05 262.778 1657.3 357.967 1734.5 459.139 C 1765.49 500.172 1792.2 544.28 1814.19 590.768 C 1824.42 612.404 1831.03 631.665 1838.63 654.285 C 1869.81 747.067 1880.37 846.666 1865.23 943.588 C 1860.5 973.881 1857.83 992.158 1847.35 1021.51 C 1847.9 1022.88 1848.42 1024.27 1848.91 1025.66 C 1856.11 1045.96 1861.11 1074.47 1864.42 1095.62 C 1883.61 1217.61 1866.25 1342.55 1814.52 1454.69 C 1804.21 1476.51 1789.51 1506.87 1776.77 1527.18 C 1708.71 1635.73 1611.93 1728.12 1500.83 1791.81 C 1476.36 1805.84 1433.53 1824.19 1407.18 1833.32 C 1306.17 1868.28 1194.93 1882.95 1089.27 1862.47 C 1068.81 1858.5 1043.04 1852.78 1024.54 1843.99 C 1011.66 1847.54 1000.03 1852 986.355 1855.45 C 941.559 1866.46 895.581 1871.94 849.451 1871.76 C 781.116 1870.01 725.998 1861.54 660.067 1840.77 C 483.677 1785.19 330.233 1645.83 245.023 1483.13 C 174.622 1348.71 153.568 1169.35 201.824 1023.59 C 96.8869 713.814 301.923 374.19 581.24 238.501 C 711.135 175.4 884.295 158.004 1021.39 206.895 C 1034.74 202.855 1047.69 198.38 1061.22 194.956 C 1107.07 183.349 1150.54 179.618 1197.59 178.483 z" fill="rgb(254,234,193)" transform="translate(0,0)"></path>
<path d="M 1191.42 193.468 C 1260.82 192.757 1329.82 203.877 1395.48 226.349 C 1560.83 281.162 1713.29 422.071 1790.91 577.023 C 1845.72 686.447 1869.36 818.968 1850.8 940.213 C 1847.1 964.376 1844.85 980.053 1837.03 1003.5 C 1832.08 992.945 1827.91 981.76 1822.72 970.916 C 1810.16 945.019 1795.98 919.943 1780.25 895.839 C 1714.9 795.877 1605.06 710.592 1491.72 673.508 C 1478.81 669.122 1465.78 665.207 1452.68 661.426 C 1442.06 658.359 1427.33 657.754 1419.92 648.851 L 1420.83 646.9 C 1425.64 644.84 1437.73 648.33 1443.05 649.631 C 1577.37 682.473 1703.55 767.727 1781.88 882.671 C 1795.71 903.082 1808.44 924.217 1820.01 945.987 C 1826.83 958.923 1832.77 972.839 1840.15 985.299 C 1840.72 982.577 1842.69 973.406 1842.38 971.355 C 1837.13 936.807 1789.1 864.673 1768.17 838.555 C 1750.39 816.617 1731.12 795.942 1710.47 776.681 C 1643.67 714.75 1563.48 669.06 1476.14 643.163 C 1460.52 638.418 1435.97 630.55 1420.19 631.262 C 1412.65 592.169 1397.62 548.833 1381.14 512.68 C 1331.95 404.657 1253.01 312.878 1153.57 248.081 C 1135.37 236.441 1108.87 220.817 1088.72 213.276 L 1065.9 217.982 C 1085.11 225.783 1103.71 235.84 1121.7 246.148 C 1224.08 305.579 1306.59 393.978 1358.83 500.21 C 1387.12 557.552 1397.55 593.25 1409.05 654.954 C 1432.93 783.147 1417.47 885.266 1376.09 1006.94 C 1371.31 997.857 1366.93 988.049 1362.14 978.788 C 1310.52 879.481 1233.46 795.661 1138.83 735.895 C 1114.62 720.788 1096.41 709.536 1068.95 700.771 C 1142.85 668.833 1236.07 653.512 1316.18 655.327 C 1340.02 655.867 1363.76 658.815 1387.58 660.665 C 1399.81 748.451 1398.32 833.061 1378.47 919.706 C 1374.28 938 1368.72 950.767 1364.6 966.825 L 1364.37 967.759 C 1367.57 973.25 1371.11 978.806 1374.46 984.232 C 1412.55 876.118 1421.23 759.824 1399.61 647.253 C 1372.07 645.326 1349.07 641.533 1320.2 640.617 C 1228.77 637.716 1119.37 657.871 1037.6 699.705 C 1145.71 747.767 1232.64 812.331 1302.24 908.821 C 1420.15 1072.28 1454.25 1290.83 1387.56 1481.01 C 1332.31 1636.04 1217.48 1762.61 1068.55 1832.65 C 1076.68 1835.33 1083.51 1837.22 1091.89 1838.73 L 1124.89 1819.48 C 1253.14 1744.37 1350.98 1626.67 1401.37 1486.86 C 1408.85 1465.9 1414.19 1444.67 1419.72 1423.16 C 1595.12 1383.38 1746.66 1281.44 1829.98 1118.35 C 1834.79 1108.94 1847.96 1083.1 1838.23 1073.91 C 1833.55 1074.98 1820.85 1104.05 1817.55 1110.36 C 1806.65 1131.25 1794.39 1151.4 1780.83 1170.67 C 1711.62 1269.11 1619.46 1341.04 1505.98 1382.16 C 1493.96 1386.51 1433.05 1407.26 1426.1 1404.66 C 1425.64 1401.01 1425.54 1401.23 1426.65 1397.76 C 1433.42 1394.66 1448.27 1391.24 1456.14 1389.15 C 1468.85 1385.85 1481.4 1381.99 1493.77 1377.6 C 1616.88 1333.93 1722.28 1252.94 1790.24 1140.69 C 1801.97 1120.98 1812.78 1100.74 1822.64 1080.03 C 1827.87 1068.76 1832.05 1057.21 1837.45 1045.89 C 1844.98 1074.15 1850.28 1102.96 1853.3 1132.05 C 1867.71 1262.7 1834.58 1400.14 1767.88 1512.92 C 1750.59 1541.76 1731.23 1569.31 1709.95 1595.34 C 1635.29 1684.34 1549.76 1755.21 1442.88 1802.47 C 1344.54 1846.72 1236.27 1864.2 1129 1853.14 C 1105.13 1850.54 1065.77 1843.28 1043.18 1834.57 C 1070.95 1823.28 1092.95 1811.22 1118.74 1795.64 C 1207.49 1742.68 1281.29 1668 1333.19 1578.63 C 1502.91 1289.75 1390.52 897.154 1097.67 739.174 C 1074.64 726.75 1050.78 716.192 1028.23 702.992 C 1024.12 704.086 1020.18 705.444 1016.28 707.16 C 976.428 724.7 937.217 747.582 901.344 772.233 C 785.636 851.746 723.562 939.457 672.873 1069.12 C 616.698 1213.22 620.751 1373.85 684.121 1514.93 C 740.489 1643.36 839.365 1747.92 962.653 1814.5 C 976.26 1821.84 988.727 1827.93 1003.16 1833.57 C 986.65 1840.9 963.208 1844.69 945.188 1847.74 C 509.516 1921.36 94.1128 1476.71 211.458 1047.58 C 216.613 1057.4 222.531 1072.53 227.192 1083.07 C 234.389 1099.26 242.379 1115.08 251.131 1130.48 C 327.032 1263.05 459.002 1355 604.662 1392.24 C 612.023 1394.12 622.306 1393.12 623.74 1401.08 C 623.149 1402.37 623.198 1403.2 621.745 1403.71 C 610.517 1407.68 524.571 1375.45 508.086 1368.01 C 464.813 1348.48 424.476 1325.74 386.544 1297.02 C 311.445 1240.17 246.942 1158.55 213.523 1070.18 C 211.689 1078.95 209.745 1087.72 208.441 1096.58 C 213.62 1105.36 218.823 1118.09 223.856 1127.68 C 233.576 1145.8 244.158 1163.44 255.565 1180.55 C 340.065 1307.13 479.384 1390.77 627.378 1420.43 C 632.567 1439.64 638.332 1458.7 644.665 1477.57 C 686.548 1601.74 762.996 1700.38 866.397 1780.15 C 891.255 1799.33 926.69 1823.34 954.968 1837.33 C 963.018 1836.32 970.44 1835.11 978.442 1833.73 C 968.866 1827.56 954.642 1820.16 944.482 1814.38 C 929.596 1805.98 915.059 1796.97 900.907 1787.38 C 669.71 1631.84 565.322 1342.2 659.976 1078.42 C 716.955 919.636 812.853 802.803 963.753 723.995 C 980.501 715.248 997.74 707.436 1014.3 698.523 C 928.916 658.861 835.95 638.172 741.802 637.878 C 725.68 638.01 709.572 638.9 693.533 640.543 C 685.625 641.366 669.125 643.901 662.478 643.509 L 661.404 641.862 C 662.013 634.472 674.163 634.309 680.116 633.724 C 689.356 632.815 698.755 632.19 708.025 631.527 C 793.432 626.125 879.046 638.124 959.678 666.795 C 971.191 670.834 1027.06 695.576 1031.31 695.669 C 1036.78 686.824 1073.54 674.147 1084.48 670.146 C 1164.95 640.772 1250.53 627.976 1336.07 632.528 C 1356.57 633.705 1376.88 636.611 1397.24 639.263 C 1394.09 622.913 1390.17 606.721 1385.49 590.741 C 1340.07 437.506 1224.53 302.733 1081.22 234.287 C 1068.61 228.266 1054.55 223.518 1042.52 216.851 L 1041.32 216.179 C 1092.46 201.182 1138.62 195.413 1191.42 193.468 z" fill="rgb(0,0,0)" transform="translate(0,0)"></path>
<path d="M 1181.43 202.564 C 1204.48 200.759 1241.44 203.187 1264.87 205.841 C 1407.21 221.966 1533.18 288.493 1636.96 385.742 C 1661.29 408.539 1690.28 442.553 1710.84 468.565 C 1785.7 561.76 1832.29 674.46 1845.08 793.314 C 1849.72 840.755 1847.87 894.61 1842.34 942.045 C 1833.98 924.311 1828.4 912.108 1817.9 895.456 C 1804.34 873.737 1788.81 850.295 1772.85 830.228 C 1705.47 746.854 1616.75 683.298 1516.12 646.316 C 1487.44 635.74 1457.54 627.82 1427.79 620.89 C 1426.47 614.201 1423.49 604.32 1421.54 597.654 C 1383.14 462.662 1300.99 344.245 1188.01 260.991 C 1159.22 240.082 1136.61 227.515 1105.73 210.611 C 1133.51 206.215 1153.36 203.588 1181.43 202.564 z" fill="rgb(185,91,119)" transform="translate(0,0)"></path>
<path d="M 1311.08 270.433 C 1313.94 269.347 1317.14 270.718 1318.33 273.536 C 1319.52 276.354 1318.27 279.608 1315.5 280.9 C 1313.61 281.779 1311.4 281.558 1309.72 280.323 C 1308.05 279.088 1307.18 277.037 1307.47 274.975 C 1307.75 272.914 1309.13 271.172 1311.08 270.433 z" fill="rgb(0,0,0)" transform="translate(0,0)"></path>
<path d="M 1637.05 574.527 C 1638.88 573.503 1641.13 573.584 1642.88 574.737 C 1644.63 575.89 1645.6 577.923 1645.38 580.009 C 1645.16 582.095 1643.8 583.886 1641.85 584.652 C 1639.1 585.731 1635.98 584.498 1634.72 581.829 C 1633.46 579.16 1634.48 575.969 1637.05 574.527 z" fill="rgb(0,0,0)" transform="translate(0,0)"></path>
<path d="M 1503.37 356.514 C 1506.12 355.142 1509.46 356.246 1510.85 358.985 C 1512.24 361.724 1511.16 365.072 1508.43 366.481 C 1505.67 367.903 1502.29 366.809 1500.88 364.044 C 1499.48 361.278 1500.6 357.899 1503.37 356.514 z" fill="rgb(0,0,0)" transform="translate(0,0)"></path>
<path d="M 1738.01 665.534 C 1740.69 664.505 1743.71 665.692 1744.98 668.271 C 1746.25 670.85 1745.34 673.968 1742.88 675.462 C 1741.08 676.555 1738.82 676.54 1737.04 675.421 C 1735.26 674.302 1734.26 672.273 1734.47 670.18 C 1734.67 668.086 1736.04 666.288 1738.01 665.534 z" fill="rgb(0,0,0)" transform="translate(0,0)"></path>
<path d="M 1493.53 486.908 C 1496.35 486.178 1499.25 487.774 1500.13 490.545 C 1501.02 493.317 1499.59 496.297 1496.87 497.336 C 1494.97 498.062 1492.83 497.678 1491.3 496.34 C 1489.77 495.002 1489.11 492.928 1489.58 490.951 C 1490.04 488.974 1491.57 487.418 1493.53 486.908 z" fill="rgb(0,0,0)" transform="translate(0,0)"></path>
<path d="M 1420.27 357.614 C 1422.04 356.725 1424.16 356.889 1425.78 358.042 C 1427.39 359.194 1428.23 361.146 1427.97 363.111 C 1427.7 365.077 1426.37 366.733 1424.51 367.415 C 1421.85 368.39 1418.89 367.118 1417.76 364.516 C 1416.64 361.914 1417.74 358.886 1420.27 357.614 z" fill="rgb(0,0,0)" transform="translate(0,0)"></path>
<path d="M 1574.73 466.627 C 1577.46 465.999 1580.2 467.636 1580.94 470.336 C 1581.68 473.037 1580.16 475.842 1577.49 476.695 C 1575.66 477.28 1573.66 476.816 1572.28 475.486 C 1570.9 474.157 1570.35 472.176 1570.86 470.326 C 1571.38 468.477 1572.86 467.056 1574.73 466.627 z" fill="rgb(0,0,0)" transform="translate(0,0)"></path>
<path d="M 206.401 1112.75 C 209.008 1115.57 212.359 1123.75 214.334 1127.74 C 282.949 1266.53 416.708 1369.17 563.386 1414.09 C 581.493 1419.63 601.603 1423.45 620.459 1429.09 C 631.654 1469.14 646.631 1513.55 664.758 1551.31 C 715.019 1655.98 797.582 1744.62 892.46 1810.59 C 907.731 1821.21 924.765 1830.98 940.797 1840.39 L 930.766 1841.25 C 884.695 1848.16 837.929 1849.16 791.605 1844.21 C 610.521 1825.19 457.958 1729.24 343.313 1589.67 C 265.563 1495.02 215.551 1378.54 203.746 1256.32 C 198.895 1206.09 201.132 1162.61 206.401 1112.75 z" fill="rgb(185,91,119)" transform="translate(0,0)"></path>
<path d="M 462.046 1571.74 C 465.117 1570.23 468.827 1571.51 470.318 1574.59 C 471.81 1577.66 470.515 1581.37 467.431 1582.84 C 464.367 1584.31 460.693 1583.03 459.211 1579.97 C 457.729 1576.91 458.996 1573.23 462.046 1571.74 z" fill="rgb(0,0,0)" transform="translate(0,0)"></path>
<path d="M 627.799 1675.61 C 630.794 1674.61 634.054 1676.09 635.265 1679.01 C 636.475 1681.93 635.223 1685.29 632.398 1686.7 C 630.385 1687.71 627.978 1687.5 626.16 1686.18 C 624.341 1684.85 623.416 1682.62 623.761 1680.39 C 624.106 1678.17 625.664 1676.32 627.799 1675.61 z" fill="rgb(0,0,0)" transform="translate(0,0)"></path>
<path d="M 545.298 1547.66 C 547.973 1545.88 551.586 1546.58 553.389 1549.25 C 555.192 1551.91 554.508 1555.53 551.859 1557.35 C 549.183 1559.19 545.521 1558.5 543.701 1555.81 C 541.88 1553.12 542.597 1549.46 545.298 1547.66 z" fill="rgb(0,0,0)" transform="translate(0,0)"></path>
<path d="M 729.164 1763.49 C 730.979 1762.45 733.214 1762.47 735.005 1763.55 C 736.797 1764.63 737.864 1766.59 737.795 1768.68 C 737.727 1770.77 736.532 1772.66 734.674 1773.62 C 731.886 1775.06 728.461 1774 726.963 1771.25 C 725.464 1768.49 726.442 1765.04 729.164 1763.49 z" fill="rgb(0,0,0)" transform="translate(0,0)"></path>
<path d="M 308.531 1365.44 C 310.411 1364.41 312.71 1364.54 314.467 1365.76 C 316.224 1366.99 317.138 1369.1 316.825 1371.22 C 316.513 1373.34 315.029 1375.1 312.993 1375.76 C 310.22 1376.67 307.212 1375.31 306.054 1372.64 C 304.896 1369.96 305.97 1366.84 308.531 1365.44 z" fill="rgb(0,0,0)" transform="translate(0,0)"></path>
<path d="M 537.919 1675.6 C 540.888 1674.83 543.923 1676.58 544.751 1679.53 C 545.579 1682.49 543.896 1685.56 540.962 1686.45 C 539.007 1687.04 536.884 1686.53 535.412 1685.12 C 533.94 1683.7 533.35 1681.6 533.871 1679.62 C 534.391 1677.64 535.94 1676.1 537.919 1675.6 z" fill="rgb(0,0,0)" transform="translate(0,0)"></path>
<path d="M 403.446 1463.54 C 405.369 1463.08 407.389 1463.7 408.727 1465.16 C 410.065 1466.61 410.513 1468.68 409.9 1470.56 C 409.286 1472.43 407.707 1473.84 405.768 1474.22 C 402.843 1474.8 399.992 1472.93 399.358 1470.02 C 398.725 1467.11 400.543 1464.22 403.446 1463.54 z" fill="rgb(0,0,0)" transform="translate(0,0)"></path>
<path d="M 1841.45 1117.74 C 1845.88 1123.3 1847.1 1196.43 1846.86 1208.83 C 1840.45 1543.82 1535.15 1842.68 1201.49 1847.95 C 1173.13 1848.4 1146.29 1846.13 1118.24 1843.27 L 1103.93 1841.31 C 1111.76 1836.1 1123.94 1830 1132.51 1825.02 C 1260.2 1749.31 1357.85 1631.86 1409 1492.51 C 1416.35 1472.29 1421.39 1451.78 1426.88 1431.01 C 1446.35 1426.15 1467.21 1421.33 1486.17 1415.13 C 1604.45 1377.75 1708.57 1305.29 1784.71 1207.36 C 1798.34 1189.51 1810.46 1170.99 1822.19 1151.87 C 1828.5 1141.58 1834.21 1127.01 1841.45 1117.74 z" fill="rgb(251,200,132)" transform="translate(0,0)"></path>
<path d="M 1315.09 1768.72 C 1318.12 1767.25 1321.78 1768.51 1323.25 1771.54 C 1324.73 1774.58 1323.47 1778.23 1320.44 1779.71 C 1317.4 1781.19 1313.74 1779.93 1312.26 1776.9 C 1310.79 1773.86 1312.05 1770.2 1315.09 1768.72 z" fill="rgb(0,0,0)" transform="translate(0,0)"></path>
<path d="M 1506.43 1676.83 C 1509.51 1676.76 1512.15 1679.02 1512.57 1682.07 C 1512.99 1685.12 1511.06 1688.01 1508.07 1688.78 C 1505.81 1689.36 1503.41 1688.59 1501.91 1686.8 C 1500.4 1685.01 1500.06 1682.52 1501.03 1680.39 C 1501.99 1678.26 1504.09 1676.88 1506.43 1676.83 z" fill="rgb(0,0,0)" transform="translate(0,0)"></path>
<path d="M 1490.44 1547.66 C 1492.99 1546.3 1496.15 1547.1 1497.74 1549.51 C 1499.34 1551.92 1498.83 1555.15 1496.57 1556.95 C 1494.92 1558.27 1492.66 1558.55 1490.73 1557.66 C 1488.81 1556.77 1487.56 1554.87 1487.49 1552.75 C 1487.43 1550.63 1488.57 1548.66 1490.44 1547.66 z" fill="rgb(0,0,0)" transform="translate(0,0)"></path>
<path d="M 1576.71 1567.67 C 1578.49 1566.91 1580.54 1567.17 1582.06 1568.36 C 1583.58 1569.55 1584.34 1571.48 1584.03 1573.38 C 1583.72 1575.29 1582.4 1576.88 1580.57 1577.53 C 1577.88 1578.49 1574.91 1577.13 1573.87 1574.47 C 1572.82 1571.81 1574.08 1568.8 1576.71 1567.67 z" fill="rgb(0,0,0)" transform="translate(0,0)"></path>
<path d="M 1739.86 1365.4 C 1742.46 1364.04 1745.66 1365.06 1747 1367.66 C 1748.34 1370.26 1747.31 1373.46 1744.71 1374.79 C 1742.11 1376.11 1738.94 1375.09 1737.61 1372.51 C 1736.28 1369.92 1737.28 1366.74 1739.86 1365.4 z" fill="rgb(0,0,0)" transform="translate(0,0)"></path>
<path d="M 1647.04 1463.46 C 1649.86 1462.82 1652.69 1464.57 1653.36 1467.39 C 1654.03 1470.21 1652.31 1473.05 1649.49 1473.75 C 1646.64 1474.46 1643.75 1472.71 1643.07 1469.85 C 1642.39 1466.99 1644.17 1464.12 1647.04 1463.46 z" fill="rgb(0,0,0)" transform="translate(0,0)"></path>
<path d="M 1419.9 1687.32 C 1423.84 1688.02 1424.35 1688.68 1425.97 1691.96 C 1425.76 1695.81 1424.91 1696.44 1422.62 1699.51 C 1418.43 1697.3 1419.94 1698.82 1417.56 1695.17 C 1417.28 1691.32 1418.01 1690.65 1419.9 1687.32 z" fill="rgb(0,0,0)" transform="translate(0,0)"></path>
<path d="M 1305.78 664.483 C 1332.04 664.462 1353.02 666.537 1379.12 669.229 C 1383.77 694.931 1384.81 720.849 1385.71 746.798 C 1388.37 823.555 1378.5 882.325 1359.99 955.858 C 1341.95 921.347 1309.88 879.493 1284.76 849.455 C 1231.48 784.103 1168.39 741.321 1096.12 700.469 C 1169.96 673.482 1228.1 665.702 1305.78 664.483 z" fill="rgb(119,202,181)" transform="translate(0,0)"></path>
<path d="M 822.249 194.423 C 881.001 191.284 949.695 198.624 1005.46 217.831 C 918.717 241.132 822.744 323.638 768.76 390.288 C 637.569 552.259 594.106 784.544 672.402 979.469 C 674.917 985.73 681.409 996.214 675.96 1001.72 L 674.037 1001.4 C 672.93 1000.3 671.34 998.62 670.709 997.192 C 624.626 892.765 611.031 759.418 638.501 649.185 C 584.23 659.476 531.679 677.36 482.396 702.311 C 478.147 704.371 473.951 706.537 469.811 708.808 C 378.605 758.259 302.818 831.926 250.801 921.693 C 237.915 943.434 218.822 981.502 211.746 1005.28 C 211.598 1004.9 211.45 1004.52 211.302 1004.14 L 210.605 1002.23 C 207.324 993.404 206.579 985.805 204.511 976.917 C 190.732 917.697 186.608 854.95 193.491 794.568 C 209.774 651.731 268.55 531.019 363.93 424.764 C 488.926 285.516 634.58 205.869 822.249 194.423 z" fill="rgb(0,0,0)" transform="translate(0,0)"></path>
<path d="M 840.699 202.465 C 870.725 201.26 906.922 204.764 936.412 210.278 C 806.931 278.305 705.688 389.943 650.6 525.435 C 635.783 561.526 631.291 584.524 619.747 619.436 C 590.606 629.036 565.752 632.677 533.725 644.53 C 412.021 688.922 308.231 772 238.265 881.029 C 225.498 901.519 216.028 917.959 206.236 939.877 C 194.718 868.65 197.739 800.178 213.705 730.039 C 239.921 613.535 297.418 506.387 380.005 420.131 C 406.824 391.725 437.094 362.162 467.725 337.801 C 573.902 253.11 704.919 205.57 840.699 202.465 z" fill="rgb(251,200,132)" transform="translate(0,0)"></path>
<path d="M 636.521 352.649 C 639.744 351.495 643.301 353.11 644.555 356.296 C 645.808 359.481 644.306 363.087 641.16 364.439 C 639.037 365.352 636.585 365.037 634.761 363.616 C 632.938 362.195 632.032 359.895 632.399 357.612 C 632.765 355.33 634.345 353.428 636.521 352.649 z" fill="rgb(0,0,0)" transform="translate(0,0)"></path>
<path d="M 725.655 271.696 C 727.556 270.324 730.059 270.115 732.162 271.152 C 734.265 272.189 735.623 274.303 735.692 276.646 C 735.761 278.99 734.529 281.18 732.491 282.338 C 729.566 284.001 725.851 283.087 724.032 280.256 C 722.213 277.425 722.926 273.666 725.655 271.696 z" fill="rgb(0,0,0)" transform="translate(0,0)"></path>
<path d="M 307.83 672.672 C 309.927 671.941 312.254 672.403 313.913 673.879 C 315.572 675.354 316.303 677.612 315.822 679.78 C 315.341 681.947 313.725 683.685 311.597 684.32 C 308.409 685.273 305.043 683.505 304.018 680.338 C 302.994 677.171 304.687 673.767 307.83 672.672 z" fill="rgb(0,0,0)" transform="translate(0,0)"></path>
<path d="M 400.083 576.801 C 402.126 575.942 404.473 576.258 406.215 577.627 C 407.958 578.995 408.821 581.201 408.47 583.389 C 408.119 585.576 406.61 587.402 404.527 588.157 C 401.416 589.284 397.974 587.727 396.768 584.645 C 395.563 581.564 397.034 578.084 400.083 576.801 z" fill="rgb(0,0,0)" transform="translate(0,0)"></path>
<path d="M 466.652 471.549 C 469.712 470.91 472.731 472.804 473.489 475.837 C 474.247 478.871 472.472 481.961 469.47 482.836 C 467.422 483.433 465.211 482.862 463.708 481.347 C 462.206 479.832 461.652 477.616 462.266 475.573 C 462.88 473.529 464.563 471.985 466.652 471.549 z" fill="rgb(0,0,0)" transform="translate(0,0)"></path>
<path d="M 549.734 491.832 C 551.41 490.699 553.572 490.578 555.363 491.517 C 557.155 492.455 558.286 494.301 558.309 496.324 C 558.332 498.346 557.242 500.217 555.472 501.196 C 552.899 502.618 549.662 501.764 548.126 499.257 C 546.59 496.75 547.299 493.479 549.734 491.832 z" fill="rgb(0,0,0)" transform="translate(0,0)"></path>
<path d="M 541.319 359.605 C 543.109 358.74 545.23 358.932 546.836 360.104 C 548.442 361.276 549.272 363.238 548.995 365.207 C 548.718 367.175 547.378 368.831 545.511 369.514 C 542.815 370.5 539.819 369.198 538.7 366.554 C 537.582 363.91 538.733 360.854 541.319 359.605 z" fill="rgb(0,0,0)" transform="translate(0,0)"></path>
<path d="M 948.6 212.841 C 954.183 212.565 971.617 216.495 977.637 217.731 C 949.199 232.238 925.471 242.474 898.265 260.385 C 763.67 348.993 674.601 484.248 640.53 640.642 C 603.547 648.512 573.056 655.034 537.327 668.816 C 388.804 726.107 283.102 827.054 216.94 970.009 C 214.932 974.053 212.224 982.708 209.369 984.8 L 207.542 984.023 C 196.85 968.624 224.97 920.445 233.963 905.16 C 298.555 794.556 398.112 708.588 516.947 660.802 C 556.979 644.714 585.959 637.363 627.127 626.69 L 627.426 625.398 C 661.245 482.129 744.346 355.306 862.2 267.102 C 892.993 244.154 917 232.526 948.6 212.841 z" fill="rgb(254,234,193)" transform="translate(0,0)"></path>
<path d="M 1427.44 670.959 C 1464.42 680.151 1500.63 692.179 1535.76 706.936 C 1637.94 749.042 1737.36 842.339 1790.46 938.327 C 1806.2 966.793 1817.5 992.676 1829.98 1022.58 C 1818.7 1061.38 1796.3 1102.19 1775.58 1136.53 C 1746.39 1184.91 1705.74 1230.09 1662.42 1266.37 C 1647.62 1279.51 1629.15 1291.48 1612.64 1302.31 C 1552.22 1341.95 1498.41 1362.91 1428.72 1380.49 C 1445.11 1239.56 1433.68 1155.12 1384.14 1022.31 C 1419.15 939.21 1436.23 849.656 1434.24 759.505 C 1433.48 728.271 1430.51 701.882 1427.44 670.959 z" fill="rgb(0,0,0)" transform="translate(0,0)"></path>
<path d="M 1492.65 700.148 C 1509.5 705.666 1531.87 714.921 1547.77 722.728 C 1638.09 767.151 1714.38 835.653 1768.25 920.68 C 1788.04 951.328 1808.15 989.728 1819.96 1024.23 C 1813.3 1046.72 1797.11 1079.07 1785.97 1100 C 1746.08 1174.92 1702.19 1221.73 1636.48 1274.21 C 1598.56 1302.87 1533.76 1339.05 1488.36 1353.14 C 1530.3 1294.36 1561.19 1228.43 1579.53 1158.59 C 1590.65 1114.98 1596.27 1070.16 1596.25 1025.16 C 1596.23 899.75 1555.3 806.311 1492.65 700.148 z" fill="rgb(119,202,181)" transform="translate(0,0)"></path>
<path d="M 1437.67 682.396 C 1451.65 686.315 1465.59 690.453 1479.07 695.846 C 1486.68 706.661 1496.84 726.434 1503.54 738.505 C 1534.34 794.02 1558.45 846.738 1573.17 908.519 C 1602.97 1033.57 1582.66 1164.03 1523.98 1277.67 C 1514.94 1295.17 1505.23 1310.61 1494.7 1327.42 C 1487.92 1338.09 1481.95 1347.47 1474.47 1357.67 C 1463.58 1361.42 1450.9 1364.71 1439.71 1367.87 C 1453.18 1280.27 1442.28 1172.54 1417.2 1088.06 C 1411.34 1068.32 1401.15 1041.86 1393.98 1021.99 C 1400.14 1010.43 1407.3 986.928 1411.74 973.67 C 1444.24 876.453 1449.32 783.384 1437.67 682.396 z" fill="rgb(251,200,132)" transform="translate(0,0)"></path>
<path d="M 617.163 669.246 L 617.741 669.352 C 619.664 671.25 617.298 679.308 616.792 682.468 C 613.856 701.043 611.772 719.743 610.548 738.509 C 604.493 837.125 624.429 935.602 668.363 1024.1 C 660.129 1036.96 648.567 1067.72 643.384 1082.59 C 609.399 1178.21 601.129 1281.08 619.401 1380.9 C 598.711 1374.25 577.74 1369.53 556.428 1362.25 C 498.632 1342.12 444.579 1312.53 396.475 1274.69 C 335.527 1227.37 285.873 1167.09 251.113 1098.2 C 240.314 1077.04 229.502 1045.27 217.502 1026.49 C 236.602 979.855 250.946 946.658 278.677 903.649 C 354.52 786.022 480.936 699.263 617.163 669.246 z" fill="rgb(0,0,0)" transform="translate(0,0)"></path>
<path d="M 557.854 696.045 L 559.254 696.378 C 558.307 700.652 537.313 733.307 533.511 740.33 C 527.644 751.166 520.149 765.159 514.304 776.528 C 493.166 817.888 477.505 861.824 467.715 907.229 C 438.966 1035.41 455.349 1156.37 514.54 1273.79 C 529.245 1302.96 544.93 1327.49 562.248 1354.85 C 508.245 1334.99 462.453 1312.24 415.795 1277.79 C 318.899 1205.76 273.41 1134.64 228.165 1024.9 C 231.429 1014.3 241.461 992.534 246.2 982.184 C 308.736 845.617 416.892 747.663 557.854 696.045 z" fill="rgb(119,202,181)" transform="translate(0,0)"></path>
<path d="M 606.942 681.342 C 607.872 682.922 603.758 712.471 603.339 716.894 C 600.08 748.697 599.483 780.717 601.556 812.62 C 607.201 891.353 626.072 952.203 656.733 1023.57 C 606.57 1145.29 589.811 1237.23 608.322 1368.76 C 598.646 1365.27 587.337 1362.54 577.03 1358.98 L 560.372 1334.46 C 520.7 1275.73 492.112 1210.24 476.02 1141.22 C 451.748 1031.29 462.659 916.51 507.21 813.121 C 528.71 763.562 547.782 733.379 576.092 688.767 C 586.207 685.669 596.602 683.591 606.942 681.342 z" fill="rgb(251,200,132)" transform="translate(0,0)"></path>
<path d="M 1019.9 224.593 C 1159.05 273.836 1273.16 375.984 1337.45 508.857 C 1355.11 544.783 1369.07 582.416 1379.09 621.172 C 1273.64 610.066 1178.8 619.659 1078.81 656.372 C 1064.76 661.53 1037.12 671.353 1024.29 678.412 C 949.905 641.482 853.981 617.875 771.212 615.136 C 736.936 614.002 701.946 616.169 667.874 619.667 C 670.9 609.485 682.631 570.335 687.581 561.779 C 690.361 551.314 703.557 522.485 708.656 512.929 C 713.483 502.241 720.749 489.461 726.533 478.954 C 776.571 387.966 851.014 312.752 941.482 261.779 C 952.894 255.207 960.802 250.835 972.845 245.51 C 986.632 239.415 1007.71 232.477 1019.9 224.593 z" fill="rgb(26,14,25)" transform="translate(0,0)"></path>
<path d="M 708.656 512.929 C 709.617 518.92 705.624 521.053 705.165 525.086 C 703.456 540.111 694.495 549.227 689.298 561.661 L 687.581 561.779 C 690.361 551.314 703.557 522.485 708.656 512.929 z" fill="rgb(0,0,0)" transform="translate(0,0)"></path>
<path d="M 1167.33 439.666 C 1168.64 440.839 1170.18 442.979 1171.32 444.423 C 1173.81 444.889 1173.85 444.808 1176.07 445.963 L 1175.73 447.689 L 1171.13 450.641 L 1171.05 452.466 L 1174.27 454.73 L 1174.52 456.675 C 1172.74 459.451 1172.96 459.601 1170.1 461.072 L 1168.53 459.948 C 1166.64 458.392 1167.02 458.681 1164.9 457.535 C 1161.83 458.635 1162.99 458.672 1160.06 458.283 L 1159.54 456.824 L 1162.06 452.009 C 1160.34 449.816 1159.9 449.282 1158.59 446.85 L 1160.06 445.769 C 1166.06 445.018 1164.87 445.025 1167.33 439.666 z" fill="rgb(254,254,248)" transform="translate(0,0)"></path>
<path d="M 872.992 438.725 C 875.405 440.341 874.485 441.602 878.008 443.851 C 880.572 443.526 882.18 442.988 884.402 444.198 C 881.606 449.062 880.767 450.878 881.404 456.532 L 880.077 456.927 L 878.362 455.727 C 875.957 454.005 876.987 454.341 874.248 453.81 L 868.793 458.187 C 867.139 455.64 869.743 453.1 869.326 452.106 C 868.311 449.685 867.612 448.096 867.031 445.085 C 870.564 442.851 870.945 442.384 872.992 438.725 z" fill="rgb(254,254,248)" transform="translate(0,0)"></path>
<path d="M 1262.85 571.494 C 1264.23 570.516 1266.04 570.387 1267.54 571.16 C 1269.05 571.933 1270 573.479 1270.01 575.171 C 1270.02 576.863 1269.08 578.42 1267.59 579.209 C 1265.47 580.324 1262.85 579.608 1261.6 577.571 C 1260.35 575.535 1260.9 572.877 1262.85 571.494 z" fill="rgb(254,254,248)" transform="translate(0,0)"></path>
<path d="M 1019.33 368.762 C 1021.61 367.963 1024.11 369.126 1024.97 371.385 C 1025.83 373.643 1024.73 376.175 1022.5 377.093 C 1021 377.71 1019.28 377.464 1018.01 376.451 C 1016.75 375.438 1016.13 373.818 1016.4 372.22 C 1016.68 370.622 1017.8 369.298 1019.33 368.762 z" fill="rgb(254,254,248)" transform="translate(0,0)"></path>
<path d="M 784.271 570.614 C 786.26 569.533 788.748 570.225 789.893 572.179 C 791.037 574.132 790.425 576.641 788.509 577.847 C 787.214 578.663 785.578 578.709 784.239 577.966 C 782.901 577.224 782.073 575.811 782.08 574.28 C 782.087 572.75 782.926 571.344 784.271 570.614 z" fill="rgb(254,254,248)" transform="translate(0,0)"></path>
<path d="M 1022.12 1370.91 C 1027.72 1370.51 1096 1397.64 1105.73 1400.95 C 1117.87 1405 1130.16 1408.57 1142.58 1411.67 C 1219.8 1431.37 1299.92 1437.15 1379.17 1428.73 C 1368.87 1469.92 1351.47 1512.63 1331.9 1550.17 C 1279.8 1649.63 1200.31 1732.09 1102.83 1787.81 C 1076.16 1803.39 1052.44 1816.52 1022.73 1825.9 C 1016.55 1826.05 976.22 1805.11 968.908 1801.18 C 858.587 1741.92 762.864 1645.28 707.381 1532.85 C 691.807 1501.29 678.206 1461.36 668.24 1427.6 C 692.159 1429.22 713.316 1432.2 737.835 1432.51 C 840.011 1433.76 928.51 1410.37 1022.12 1370.91 z" fill="rgb(26,14,25)" transform="translate(0,0)"></path>
<path d="M 1167.86 1590.69 C 1171.22 1593.8 1174.34 1596.96 1177.57 1600.21 C 1173.2 1603.62 1171.56 1605.74 1168.04 1609.88 C 1165.25 1608.19 1160.05 1602.43 1157.49 1599.81 C 1162.72 1596.63 1164.93 1596.32 1167.86 1590.69 z" fill="rgb(254,234,193)" transform="translate(0,0)"></path>
<path d="M 785.419 1458.6 C 789.098 1461.48 788.713 1462.64 794.844 1466.66 C 791.652 1469.56 788.738 1472.64 785.726 1475.72 C 782.715 1471.84 779.776 1469.97 775.883 1467 C 780.894 1463.9 782.098 1463.37 785.419 1458.6 z" fill="rgb(254,234,193)" transform="translate(0,0)"></path>
<path d="M 875.201 1591.65 C 877.922 1593.88 881.467 1597.53 884.085 1600.06 C 881.392 1602.83 879.223 1606.01 876.935 1609.13 C 874.059 1606.2 871.045 1602.8 868.224 1599.77 C 870.57 1597.35 873.01 1594.28 875.201 1591.65 z" fill="rgb(254,234,193)" transform="translate(0,0)"></path>
<path d="M 1025.8 716.694 C 1034.49 722.903 1053.72 759.314 1059.63 770.112 C 1101.33 846.373 1128.1 925.426 1129.22 1012.95 C 1129.7 1100.97 1106.44 1187.49 1061.89 1263.41 C 1056.87 1272.08 1043.01 1296.04 1036.63 1302.58 C 1032.81 1302.55 1034.41 1303.15 1031.56 1301.04 C 1029.26 1294.2 1047.46 1270.93 1052.72 1261.81 C 1085.4 1205.99 1107.09 1144.42 1116.6 1080.43 C 1131.71 979.983 1105.78 873.088 1057.61 784.74 C 1048.97 768.901 1036.98 743.452 1026.28 729.693 C 1002.11 755.588 973.623 820.276 960.603 852.876 C 898.233 1009.04 928.844 1193.55 1034.24 1323.48 C 1037.5 1327.49 1048.02 1330.98 1053.1 1332.78 C 1066.4 1328.04 1083.87 1319.29 1096.57 1312.75 C 1183.57 1267.03 1257.13 1199.38 1309.96 1116.51 C 1318.76 1102.44 1327.12 1088.1 1335.04 1073.51 C 1338.34 1067.5 1347.45 1043.81 1353.05 1044.03 C 1354.83 1046.79 1354.64 1054.26 1353.25 1057.1 C 1303.48 1158.85 1227.84 1245.34 1130.38 1303.81 C 1108.94 1316.67 1087.44 1327.07 1064.74 1337.63 L 1084.12 1344.81 C 1099.4 1338.96 1114.44 1329.7 1128.65 1321.67 C 1177.03 1294.31 1211.07 1266.5 1250.5 1227.78 C 1283.78 1193.99 1313.07 1156.49 1337.8 1116.03 C 1346.44 1101.93 1353.43 1086.88 1362.06 1072.59 C 1401.42 1174.38 1403.04 1281.47 1388.67 1388.04 C 1315.76 1398.77 1241.48 1395.83 1169.64 1379.38 C 1142.77 1373.28 1120.44 1365.77 1094.45 1356.84 C 970.979 1314.37 856.872 1246.02 775.272 1142.33 C 757.781 1120.24 741.79 1097 727.406 1072.76 C 718.973 1058.37 711.95 1043.5 703.039 1029.39 C 756.621 916.364 829.4 831.29 937.193 766.258 C 953.034 756.701 979.328 740.342 996.049 733.453 C 990.611 744.791 980.375 756.747 974.114 768.027 C 962.834 788.349 951.54 812.534 942.866 834.068 C 891.44 959.509 893.223 1100.47 947.804 1224.57 C 957.681 1247.64 977.713 1289.76 995.883 1307.8 C 998.276 1310.17 1013.5 1315.43 1018.08 1317.26 C 1007.62 1302.44 997.139 1288.41 987.95 1272.65 C 939.626 1189.72 914.142 1090.17 920.162 994.277 C 925.283 912.726 955.499 826.449 997.317 756.716 C 1004.71 744.38 1015.3 725.844 1025.8 716.694 z" fill="rgb(0,0,0)" transform="translate(0,0)"></path>
<path d="M 964.633 760.998 C 965.164 764.344 953.425 787.269 951.285 791.778 C 931.823 832.775 915.89 875.849 906.688 920.371 C 885.877 1020.27 895.752 1124.13 935.015 1218.32 C 946.597 1246.71 957.119 1268.9 973.886 1294.4 C 930.924 1270.81 901.015 1252.47 863.58 1220.28 C 793.543 1159.37 757.47 1109.68 713.022 1028.59 C 719.085 1018.35 724.833 1006.11 730.568 995.466 C 738.537 980.849 747.007 966.51 755.963 952.476 C 808.14 870.734 880.556 808.182 964.633 760.998 z" fill="rgb(119,202,181)" transform="translate(0,0)"></path>
<path d="M 1359.51 1095.85 C 1362.7 1100.81 1369.49 1128.55 1371.18 1135.62 C 1391.41 1220.14 1392.02 1294.46 1380.27 1379.84 C 1366.64 1382.45 1348.05 1383.35 1334.06 1384.17 C 1266.54 1388.16 1213.17 1381.17 1148.22 1364.79 C 1131.82 1360.46 1114.76 1354.83 1098.49 1349.73 C 1115.89 1341.32 1134.13 1329.52 1150.5 1319.26 C 1240.44 1262.91 1309.09 1189.22 1359.51 1095.85 z" fill="rgb(119,202,181)" transform="translate(0,0)"></path>
<path d="M 1054.66 733.022 C 1071.59 739.381 1098.01 755.141 1113.83 765.09 C 1199.49 817.974 1270.5 891.524 1320.34 978.991 C 1327.76 992.165 1337.13 1008.33 1342.83 1022.11 C 1335.26 1042.71 1325.21 1061 1314.59 1080.06 C 1278.29 1145.17 1233.46 1197.19 1175.36 1243.59 C 1161.07 1255.8 1060.34 1322.99 1047.36 1315.7 C 1047.04 1311.11 1070.82 1275.59 1075.35 1267.6 C 1088.72 1244.05 1100.83 1219.3 1110.38 1193.94 C 1156.2 1072.25 1152.66 944.646 1101.75 825.169 C 1094.19 807.425 1086 789.545 1076.72 772.635 C 1069.71 759.862 1061.01 747.362 1055.11 734.076 C 1054.96 733.726 1054.81 733.373 1054.66 733.022 z" fill="rgb(0,0,0)" transform="translate(0,0)"></path>
<path d="M 1079.84 755.094 C 1090.66 759.937 1102.88 769.337 1113.42 775.709 C 1158.98 803.258 1200.29 841.111 1236.82 879.607 C 1276.12 921.029 1306.95 972.14 1332.68 1022.74 C 1323.59 1040.07 1316.29 1057.43 1306.37 1074.94 C 1271.17 1137.06 1233.38 1182.33 1179.32 1227.81 C 1145.24 1256.7 1107.85 1279.14 1067.88 1299.04 C 1084.95 1268.57 1104.88 1234.05 1117.64 1201.73 C 1161.68 1091.18 1163.9 968.366 1123.9 856.294 C 1111.01 819.892 1094.8 789.623 1079.84 755.094 z" fill="rgb(185,91,119)" transform="translate(0,0)"></path>
<path d="M 1025.32 754.87 C 1122.13 915.892 1138.35 1086.42 1042 1252.04 C 1036.11 1262.17 1029.66 1274.28 1021.88 1282.93 C 1003.11 1261.9 966.102 1180.26 961.226 1152.2 C 931.409 1067.95 938.843 930.276 977.388 849.718 C 988.227 819.535 1007.81 781.734 1025.32 754.87 z" fill="rgb(26,14,25)" transform="translate(0,0)"></path>
<path d="M 977.388 849.718 L 978.476 851.219 C 960.647 898.015 948.761 938.267 947.32 988.837 C 945.998 1035.19 947.151 1073.56 958.959 1118.91 C 960.376 1124.36 962.112 1146.45 961.226 1152.2 C 931.409 1067.95 938.843 930.276 977.388 849.718 z" fill="rgb(0,0,0)" transform="translate(0,0)"></path>
<path d="M 1025.79 1017.42 C 1028.49 1018.76 1030.37 1020.98 1032.05 1023.41 C 1031.64 1027.63 1030.47 1027.6 1026.87 1031.15 C 1024.13 1029.26 1023.24 1028.81 1021.05 1026.19 C 1021.52 1021.89 1022.95 1021.25 1025.79 1017.42 z" fill="rgb(254,254,248)" transform="translate(0,0)"></path>
<path d="M 737.665 652.461 C 809.966 649.847 914.293 669.621 980.017 699.534 C 903.88 734.283 827.21 792.106 771.733 854.617 C 736.129 893.761 711.181 932.439 686.374 978.503 C 646.406 868.396 636.937 773.43 659.689 658.397 C 687.377 656.85 707.82 653.204 737.665 652.461 z" fill="rgb(26,14,25)" transform="translate(0,0)"></path>
<path d="M 684.33 1075.4 C 687.361 1077.64 695.131 1092.62 697.631 1096.77 C 763.648 1206.35 862.046 1292.62 977.157 1348.38 C 958.565 1356.47 933.584 1364.54 914.259 1370.52 C 831.356 1394.91 744.101 1400.76 658.683 1387.66 C 638.267 1283.2 647.143 1175.13 684.33 1075.4 z" fill="rgb(26,14,25)" transform="translate(0,0)"></path>
<path d="M 696.26 1046.66 C 698.601 1049.09 708.082 1067.81 710.609 1072.27 C 716.285 1082.32 722.271 1092.19 728.56 1101.87 C 763.074 1155.26 797.764 1193.6 845.713 1235.49 C 945.197 1322.41 1110.95 1393.66 1241.82 1406.32 C 1272.26 1409.24 1302.88 1409.93 1333.42 1408.38 C 1349.82 1407.46 1365.5 1405.44 1381.76 1404.28 L 1383.09 1405.7 C 1383.71 1409.5 1384.34 1409.17 1382.8 1411.71 C 1372.81 1414.45 1337 1416.72 1325.74 1417.21 C 1214.74 1422.09 1127.19 1397.44 1026.65 1354.97 C 1023.49 1355.72 1007.13 1362.16 1003.55 1363.5 C 983.96 1370.85 964.967 1378.38 945.051 1384.91 C 872.708 1408.63 799.762 1420.38 723.595 1417.75 C 704.688 1417.09 682.704 1414.51 663.607 1412.62 C 663.135 1410.16 662.726 1406.01 662.392 1403.4 C 757.42 1416.88 846.844 1407.55 938.104 1378.19 C 963.608 1369.98 989.125 1359.73 1014.77 1351.05 C 997.291 1341.08 976.284 1332.07 958.153 1322.44 C 861.097 1271.74 778.977 1196.55 719.935 1104.33 C 711.338 1090.78 699.069 1072.86 693.636 1057.9 C 692.033 1053.48 694.059 1050.4 696.26 1046.66 z" fill="rgb(0,0,0)" transform="translate(0,0)"></path>
<path d="M 656.053 199.94 C 682.665 186.736 695.603 181.641 723.911 171.957 C 907.97 108.362 1107.44 104.709 1293.71 161.522 C 1326.39 171.688 1364.54 184.961 1395.35 200.063 L 1394.62 201.317 C 1275.25 161.911 1143.73 156.838 1024.1 197.825 C 1008.83 194.255 993.807 187.936 976.778 184.226 C 858.799 158.52 770.025 168.642 656.053 199.94 z" fill="rgb(185,91,119)" transform="translate(0,0)"></path>
<path d="M 1398.68 1844.6 L 1398.44 1847.06 C 1393.57 1848.78 1382.05 1854.41 1376.72 1856.78 C 1364.6 1862.16 1352.33 1867.21 1339.93 1871.91 C 1312.54 1882.3 1282.04 1890.71 1253.57 1898.05 C 1050.46 1950.36 835.603 1932.32 644.056 1846.85 L 644.795 1844.52 C 662.782 1852.05 697.198 1860.3 716.627 1864.79 C 821.199 1888.95 920.985 1885.08 1023.45 1853.34 C 1121.57 1886.42 1222.69 1888.39 1323.31 1865.86 C 1346.38 1860.69 1376.76 1853.19 1398.68 1844.6 z" fill="rgb(185,91,119)" transform="translate(0,0)"></path>
<path d="M 202.413 645.998 C 202.626 649.871 190.221 686.147 188.294 692.682 C 157.45 797.263 156.793 919.416 191.407 1023.08 C 184.707 1042.59 178.533 1073.25 174.828 1093.8 C 157.045 1192.42 167.419 1284.51 193.92 1380.33 C 191.86 1376.67 189.854 1372.19 188.015 1368.36 C 182.59 1356.22 176.366 1338.02 172.034 1325.35 C 108.9 1142.08 104.838 943.621 160.42 757.922 C 171.487 721.2 185.476 680.517 202.413 645.998 z" fill="rgb(185,91,119)" transform="translate(0,0)"></path>
<path d="M 1849.8 655.381 C 1917.95 823.901 1940.89 985.375 1913.12 1165.77 C 1905.8 1215.29 1894.63 1264.17 1879.72 1311.96 C 1871.26 1338.96 1862.44 1358.79 1852.63 1384.59 L 1850.49 1384.25 C 1857.25 1368.72 1865.36 1330.05 1869.02 1312.66 C 1889.97 1213.02 1883.73 1118.83 1857.21 1020.73 C 1866.76 993.372 1869.37 976.19 1873.95 948.25 C 1885.14 879.992 1882.7 811.953 1870.69 743.962 C 1866.07 717.803 1858.23 682.489 1848.51 657.761 L 1849.8 655.381 z" fill="rgb(185,91,119)" transform="translate(0,0)"></path>
<path d="M 1395.35 200.063 C 1407.9 204.263 1403.58 206.452 1418.82 207.552 C 1416.32 208.044 1413.82 208.356 1411.56 209.451 C 1406.19 208.357 1399.67 204.084 1394.62 201.317 L 1395.35 200.063 z" fill="rgb(26,14,25)" transform="translate(0,0)"></path>
<path d="M 644.056 1846.85 C 638.464 1844.48 630.671 1843.95 628.325 1838.78 C 631.342 1838.45 641.302 1843.08 644.795 1844.52 L 644.056 1846.85 z" fill="rgb(26,14,25)" transform="translate(0,0)"></path>
<path d="M 1419.72 1834.89 C 1413.55 1839.47 1405.48 1843.98 1398.44 1847.06 L 1398.68 1844.6 C 1405.89 1840.86 1412.24 1838.1 1419.72 1834.89 z" fill="rgb(87,45,64)" transform="translate(0,0)"></path>
<path d="M 1848.51 657.761 C 1847.2 653.716 1844.06 645.573 1844.96 641.827 C 1847.79 647.033 1848.32 649.766 1849.8 655.381 L 1848.51 657.761 z" fill="rgb(26,14,25)" transform="translate(0,0)"></path>
<path d="M 1850.49 1384.25 L 1852.63 1384.59 C 1850.68 1391.74 1848.26 1396.94 1845.31 1403.72 C 1846.62 1397.44 1848.73 1390.51 1850.49 1384.25 z" fill="rgb(87,45,64)" transform="translate(0,0)"></path>
<metadata><recraft-signature>{"signed_by": "recraft", "signature_b64": "eVNjxtvXwrLnc5OuS7ePAgM+sGCbVRx71qFvLab92rZT0o8UHgB6gP9LdHi8YJaFbgS4CE9aXo1n5AQMHP/aAw==", "signing_algo": "Ed25519", "generation_timestamp": 1773714869, "identifier": "83bfa5c4-0a83-495e-b12f-62abd99e4570"}</recraft-signature></metadata></svg>